<svg width="100" height="100" viewBox="0 0 100 100" fill="none" xmlns="http://www.w3.org/2000/svg">
<rect width="100" height="100" fill="#D9D9D9"/>
<line y1="60.5" x2="100" y2="60.5" stroke="#7E7E7E"/>
<path d="M49.5 60.5L32.5 43.5M49.5 60.5L32.5 37.0238M49.5 60.5L25.2143 43.5M28.5 31.5V39.5M28.5 31.5H20.5C19.9477 31.5 19.5 31.9477 19.5 32.5V39.5M28.5 31.5L32.5 37.0238M28.5 39.5H19.5M28.5 39.5L32.5 43.5M19.5 39.5L25.2143 43.5M32.5 43.5V37.0238M32.5 43.5H25.2143" stroke="#7E7E7E"/>
<path d="M28.5 39.5V31.5M28.5 39.5L32.5 43.5M28.5 39.5H19.5M28.5 31.5H19.6C19.5448 31.5 19.5 31.5448 19.5 31.6V39.5M28.5 31.5L32.4809 36.9737C32.4933 36.9908 32.5 37.0114 32.5 37.0325V43.5M19.5 39.5L25.4748 43.4832C25.4912 43.4942 25.5105 43.5 25.5303 43.5H32.5" stroke="black"/>
<circle cx="49.5" cy="60.5" r="1" fill="black" stroke="black"/>
</svg>
