<svg width="100" height="100" viewBox="0 0 100 100" fill="none" xmlns="http://www.w3.org/2000/svg">
<rect width="100" height="100" fill="#D9D9D9"/>
<path d="M27.125 33L7.03899 59.7814C6.9674 59.8768 7.09301 59.9948 7.18383 59.9175L27.125 42.9306M27.125 33L33.32 24.74C33.3777 24.6631 33.5 24.7039 33.5 24.8V37.4538C33.5 37.4831 33.4872 37.5109 33.4648 37.5299L27.125 42.9306M27.125 33V42.9306" stroke="#7E7E7E"/>
<line y1="60.5" x2="100" y2="60.5" stroke="#7E7E7E"/>
<path d="M94.5 60.5L46 42.2131M94.5 60.5L46 31.877M94.5 60.5L27 43M46 42.2131L33.5647 37.5244C33.5258 37.5097 33.5 37.4725 33.5 37.4308V24.6751C33.5 24.5977 33.5842 24.5497 33.6508 24.589L46 31.877M46 42.2131V31.877M46 42.2131L6.5 60.5" stroke="#7E7E7E"/>
<path d="M46 42L38.0342 45.9829C38.0122 45.9939 37.9869 45.9964 37.9631 45.9899L27 43M46 42V32.0586C46 32.0224 45.9804 31.989 45.9489 31.9714L33.5 25M46 42L33.5 37.5M33.5 25L27.0206 33.4731C27.0072 33.4905 27 33.5119 27 33.5339V43M33.5 25V37.5M27 43L33.5 37.5" stroke="black"/>
<circle cx="6.5" cy="60.5" r="1" fill="black" stroke="black"/>
<circle cx="93.5" cy="60.5" r="1" fill="black" stroke="black"/>
</svg>
