<svg width="100" height="100" viewBox="0 0 100 100" fill="none" xmlns="http://www.w3.org/2000/svg">
<rect width="100" height="100" fill="#D9D9D9"/>
<circle cx="50" cy="50" r="33.5" stroke="#7E7E7E"/>
<path d="M56.5 50C56.5 59.3638 55.6624 67.8259 54.315 73.9339C53.6405 76.992 52.8439 79.4328 51.976 81.0969C51.5418 81.9295 51.1022 82.5431 50.6715 82.9427C50.2433 83.3399 49.8535 83.5 49.5 83.5C49.1465 83.5 48.7567 83.3399 48.3285 82.9427C47.8978 82.5431 47.4582 81.9295 47.024 81.0969C46.1561 79.4328 45.3595 76.992 44.685 73.9339C43.3376 67.8259 42.5 59.3638 42.5 50C42.5 40.6362 43.3376 32.1741 44.685 26.0661C45.3595 23.008 46.1561 20.5672 47.024 18.9031C47.4582 18.0705 47.8978 17.4569 48.3285 17.0573C48.7567 16.6601 49.1465 16.5 49.5 16.5C49.8535 16.5 50.2433 16.6601 50.6715 17.0573C51.1022 17.4569 51.5418 18.0705 51.976 18.9031C52.8439 20.5672 53.6405 23.008 54.315 26.0661C55.6624 32.1741 56.5 40.6362 56.5 50Z" stroke="#7E7E7E"/>
<path d="M60.5 50C60.5 59.3494 59.2175 67.7928 57.1581 73.8814C56.1275 76.9283 54.9116 79.358 53.5858 81.0158C52.2562 82.6786 50.8721 83.5 49.5 83.5C48.1279 83.5 46.7438 82.6786 45.4142 81.0158C44.0884 79.358 42.8725 76.9283 41.8419 73.8814C39.7825 67.7928 38.5 59.3494 38.5 50C38.5 40.6506 39.7825 32.2072 41.8419 26.1186C42.8725 23.0717 44.0884 20.642 45.4142 18.9842C46.7438 17.3214 48.1279 16.5 49.5 16.5C50.8721 16.5 52.2562 17.3214 53.5858 18.9842C54.9116 20.642 56.1275 23.0717 57.1581 26.1186C59.2175 32.2072 60.5 40.6506 60.5 50Z" stroke="#7E7E7E"/>
<path d="M68.5 50C68.5 59.3155 66.2779 67.7247 62.7112 73.7881C59.1377 79.8631 54.2733 83.5 49 83.5C43.7267 83.5 38.8623 79.8631 35.2888 73.7881C31.7221 67.7247 29.5 59.3155 29.5 50C29.5 40.6845 31.7221 32.2753 35.2888 26.2119C38.8623 20.1369 43.7267 16.5 49 16.5C54.2733 16.5 59.1377 20.1369 62.7112 26.2119C66.2779 32.2753 68.5 40.6845 68.5 50Z" stroke="#7E7E7E"/>
<path d="M49.5 39C58.8494 39 67.2928 40.2825 73.3814 42.3419C76.4283 43.3725 78.858 44.5884 80.5158 45.9142C82.1786 47.2438 83 48.6279 83 50C83 51.3721 82.1786 52.7562 80.5158 54.0858C78.858 55.4116 76.4283 56.6275 73.3814 57.6581C67.2928 59.7175 58.8494 61 49.5 61C40.1506 61 31.7072 59.7175 25.6186 57.6581C22.5717 56.6275 20.142 55.4116 18.4842 54.0858C16.8214 52.7562 16 51.3721 16 50C16 48.6279 16.8214 47.2438 18.4842 45.9142C20.142 44.5884 22.5717 43.3725 25.6186 42.3419C31.7072 40.2825 40.1506 39 49.5 39Z" stroke="#7E7E7E"/>
<path d="M50 43.5C59.3655 43.5 67.8301 44.2819 73.9408 45.54C77.0003 46.1699 79.4433 46.9139 81.1093 47.7249C81.9434 48.1308 82.5565 48.5412 82.9546 48.9417C83.3513 49.3408 83.5 49.6932 83.5 50C83.5 50.3068 83.3513 50.6592 82.9546 51.0583C82.5565 51.4588 81.9434 51.8692 81.1093 52.2751C79.4433 53.0861 77.0003 53.8301 73.9408 54.46C67.8301 55.7181 59.3655 56.5 50 56.5C40.6345 56.5 32.1699 55.7181 26.0592 54.46C22.9997 53.8301 20.5567 53.0861 18.8907 52.2751C18.0566 51.8692 17.4435 51.4588 17.0454 51.0583C16.6487 50.6592 16.5 50.3068 16.5 50C16.5 49.6932 16.6487 49.3408 17.0454 48.9417C17.4435 48.5412 18.0566 48.1308 18.8907 47.7249C20.5567 46.9139 22.9997 46.1699 26.0592 45.54C32.1699 44.2819 40.6345 43.5 50 43.5Z" stroke="#7E7E7E"/>
<path d="M50 25.5C59.2934 25.5 67.687 28.2705 73.7454 32.7252C79.8041 37.18 83.5 43.2934 83.5 50C83.5 56.7066 79.8041 62.82 73.7454 67.2748C67.687 71.7295 59.2934 74.5 50 74.5C40.7066 74.5 32.313 71.7295 26.2546 67.2748C20.1959 62.82 16.5 56.7066 16.5 50C16.5 43.2934 20.1959 37.18 26.2546 32.7252C32.313 28.2705 40.7066 25.5 50 25.5Z" stroke="#7E7E7E"/>
<path d="M49.5 49.5L39 39.5M49.5 49.5L42.008 26.025C42.0052 26.0163 41.9933 26.0151 41.9896 26.0236C40.3954 29.63 39.3326 36.5065 39 39.5M49.5 49.5L30.0309 41.0135C30.0218 41.0095 30.0224 40.9963 30.0322 40.9946C32.049 40.6585 36.6128 39.8979 39 39.5" stroke="#7E7E7E"/>
<circle cx="49.5" cy="49.5" r="1" fill="black" stroke="black"/>
<path d="M36.5 44L42.9077 43.5071C42.9598 43.5031 43 43.4606 43 43.4084C43.0002 41.0749 43.013 37.4406 43.9951 32.0269C43.9983 32.0095 43.9968 31.9912 43.9908 31.9746L42 26.5" stroke="black"/>
<path d="M33.9982 28.5039C31.2108 34.4785 30.5055 39.4608 30.0059 40.982C30.0034 40.9899 30.0107 40.9964 30.0185 40.9938C32.4211 40.1984 37.1581 39.6677 38.9923 39.5007C38.997 39.5003 39.0004 39.4966 39.001 39.4919C39.7981 32.7223 41.3217 27.5399 41.9922 26.0177C41.9955 26.01 41.9879 26.003 41.9798 26.005C37.996 27.0021 35.9994 27.8333 34.0041 28.4986C34.0015 28.4995 33.9993 28.5014 33.9982 28.5039Z" stroke="black"/>
<path d="M30.3137 41.1344L36.9771 43.9902C36.9921 43.9966 37.0085 43.9993 37.0248 43.9979L42.7851 43.5179C42.87 43.5108 42.9077 43.4077 42.8475 43.3475L39.0364 39.5364C39.0136 39.5136 38.9811 39.5032 38.9492 39.5085L30.3367 40.9439C30.2381 40.9603 30.2219 41.0951 30.3137 41.1344Z" stroke="black"/>
<circle cx="49.5" cy="16.5" r="1" fill="black" stroke="black"/>
<circle cx="83.5" cy="49.5" r="1" fill="black" stroke="black"/>
<circle cx="49.5" cy="83.5" r="1" fill="black" stroke="black"/>
<circle cx="16.5" cy="49.5" r="1" fill="black" stroke="black"/>
</svg>
